<?xml version="1.0" encoding="UTF-8"?>
<svg width="750" height="750" viewBox="0 0 750 750" fill="none" xmlns="http://www.w3.org/2000/svg">
<path fill-rule="evenodd" clip-rule="evenodd" d="M628 425C628 293.556 521.444 187 390 187C258.556 187 141.932 293.78 152 425C164 581.398 628 551.609 628 425Z" fill="#4285F4"/>
<path d="M202.118 421.988C202.896 421.918 203.912 421.999 204.133 422.749C204.14 423.653 202.994 424.029 202.096 424.14C197.259 424.742 192.421 425.343 187.584 425.945C189.833 427.853 190.056 431.64 188.154 433.894C186.251 436.148 182.615 436.61 180.126 435.029C179.296 434.501 178.588 433.786 177.715 433.332C176.842 432.878 175.689 432.743 174.933 433.373C173.225 434.796 170.648 434.412 168.603 433.538C166.577 432.672 164.577 431.194 164.105 429.041C163.638 426.908 164.803 424.758 166.181 423.063C167.558 421.369 169.223 419.834 170.05 417.813C171.265 414.848 174.85 413.372 178.026 413.792C181.202 414.211 183.983 416.144 186.297 418.361C187.786 419.788 190.202 419.228 192.171 418.613C194.14 417.997 196.613 417.542 197.992 419.077" fill="white"/>
<path fill-rule="evenodd" clip-rule="evenodd" d="M481.405 413.663C481.405 391.467 497.812 386.352 508.222 386.613C518.633 386.875 528.563 393.577 532.427 402.925C536.291 412.273 533.883 423.73 526.571 430.897C519.258 438.065 503.819 438.152 499.368 436.801C494.918 435.45 481.405 426.052 481.405 413.663Z" fill="white"/>
<path fill-rule="evenodd" clip-rule="evenodd" d="M506.928 398.32C510.664 398.021 514.503 399.384 517.213 401.972C521.413 405.983 522.498 412.881 519.731 417.987C516.964 423.093 510.593 425.951 504.94 424.622C499.555 423.357 495.243 418.425 494.707 412.92C494.171 407.416 497.452 401.745 502.491 399.464C503.889 398.832 505.398 398.443 506.928 398.32M513.412 400.901C512.09 399.929 510.636 399.116 509.064 398.802C507.276 398.445 505.403 398.758 503.725 399.518C499.462 401.448 496.556 406.448 496.833 411.435C497.111 416.421 500.575 421.023 505.045 422.295C509.515 423.566 514.646 421.385 517.086 417.142C519.525 412.899 519.05 406.934 515.949 403.229C515.203 402.338 514.331 401.577 513.412 400.901V400.901Z" fill="#00160A"/>
<path fill-rule="evenodd" clip-rule="evenodd" d="M256.933 415.252C256.84 413.806 256.852 412.345 257.107 410.918C257.301 409.837 257.633 408.785 257.965 407.737C258.679 405.478 259.396 403.213 260.375 401.055C265.175 390.477 276.649 383.313 288.261 383.615C299.872 383.916 310.947 391.65 315.257 402.436C319.567 413.222 316.882 426.442 308.725 434.712C300.569 442.982 287.408 445.853 276.538 441.759C265.668 437.664 257.677 426.844 256.933 415.252" fill="white"/>
<path fill-rule="evenodd" clip-rule="evenodd" d="M288.082 284.569C288.141 289.161 286.968 294.071 289.092 298.142C293.027 305.684 304.077 304.282 312.206 301.775C305.525 294.171 298.845 286.568 292.164 278.964C306.004 264.833 319.843 250.702 333.683 236.571C334.837 235.393 336.17 234.134 337.818 234.102C339.72 234.065 341.207 235.655 342.425 237.116C346.958 242.554 351.491 247.991 356.025 253.429C359.76 257.909 363.316 265.165 358.744 268.787C375.896 267.624 393.047 266.46 410.198 265.296C406.987 246.952 412.888 224.372 418.714 206.684C419.295 204.921 419.997 203.003 421.608 202.081C422.737 201.435 424.103 201.409 425.403 201.4C456.717 201.184 488.031 200.968 519.345 200.752C521.241 200.739 523.242 200.752 524.881 201.707C526.288 202.526 527.235 203.931 528.123 205.296C554.615 246.023 571.154 297.174 575.91 345.526C576.507 351.591 584.279 395.024 575.91 396.312C536.055 402.447 543.866 366.326 501.773 371.61C467.189 375.951 473.723 396.312 453.734 400.279C435.778 403.843 374.532 404.729 354.679 405.723C327.443 407.087 325.518 365.914 284.042 367.586C242.565 369.259 243.515 416.354 221.17 410.962C220.239 410.738 210.122 404.854 209.894 404.149C206.602 393.973 204.133 356.727 204.133 356.727L196.333 354.994C196.333 354.994 195.76 335.767 196.333 335.153C197.343 334.07 215.023 336.012 222.676 335.153C220.415 319.454 218.154 303.756 215.894 288.057C215.698 286.701 215.53 285.212 216.266 284.057C217.086 282.774 218.731 282.349 220.221 282.037C240.162 277.871 260.453 275.386 280.809 274.616C285.398 274.442 288.022 279.977 288.082 284.569Z" fill="white"/>
<path fill-rule="evenodd" clip-rule="evenodd" d="M247.843 327.398L238.866 328.038L233.821 279.476L241.681 278.184L247.843 327.398Z" fill="#FFB61D"/>
<path fill-rule="evenodd" clip-rule="evenodd" d="M459.833 234.905C462.264 234.438 508.897 266.8 508.414 267.325C507.931 267.851 458.871 235.09 459.833 234.905Z" fill="#E7EAEE"/>
<path fill-rule="evenodd" clip-rule="evenodd" d="M479.833 234.905C481.719 234.57 505.62 250.729 504.956 251.671C504.291 252.612 478.628 235.12 479.833 234.905Z" fill="#E7EAEE"/>
<path fill-rule="evenodd" clip-rule="evenodd" d="M454.833 244.905C453.927 243.304 480.675 261.811 479.956 261.671C473.064 260.323 455.099 245.376 454.833 244.905Z" fill="#E7EAEE"/>
<path fill-rule="evenodd" clip-rule="evenodd" d="M451.672 297.118C452.259 297.581 452.019 298.635 451.356 298.982C450.694 299.328 449.851 299.097 449.265 298.632C447.501 297.233 447.867 294.268 449.411 292.63C450.956 290.992 453.249 290.34 455.423 289.755C456.325 289.513 457.227 289.271 458.129 289.028C459.97 288.534 461.927 288.039 463.753 288.587C465.578 289.134 467.099 291.158 466.391 292.927C465.945 294.04 464.766 294.714 463.586 294.927C462.406 295.14 461.195 294.978 459.999 294.897C457.649 294.737 455.278 294.891 452.968 295.353C452.515 295.444 452.037 295.561 451.713 295.89C451.388 296.22 451.31 296.831 451.672 297.118Z" fill="#00160A"/>
<path fill-rule="evenodd" clip-rule="evenodd" d="M463.505 397.985C462.894 400.511 462.283 403.037 461.672 405.563C461.486 406.335 461.28 407.144 460.738 407.725C459.933 408.59 458.63 408.713 457.45 408.781C420.326 410.908 383.174 412.535 346.006 413.66C343.493 413.737 341.125 412.303 339.476 410.406C337.827 408.509 336.778 406.176 335.752 403.881C337.377 403.489 338.916 404.781 339.906 406.129C340.895 407.476 341.766 409.066 343.304 409.722C344.316 410.153 345.459 410.102 346.557 410.043C382.65 408.105 418.744 406.167 454.837 404.228C456.138 404.159 457.549 404.045 458.516 403.172C459.51 402.273 459.749 400.833 460.331 399.626C460.913 398.419 462.343 397.317 463.505 397.985L463.505 397.985Z" fill="#00160A"/>
<path fill-rule="evenodd" clip-rule="evenodd" d="M185.798 419.565C184.043 417.69 181.825 416.253 179.396 415.417C177.748 414.85 175.859 414.578 174.311 415.38C172.763 416.182 171.9 418.396 172.988 419.758C173.561 420.475 172.268 421.154 171.372 421.35C168.694 421.937 166.673 424.906 167.432 427.541C168.191 430.175 171.876 431.549 174.002 429.817C174.771 429.19 175.287 428.275 176.121 427.737C176.955 427.198 178.36 427.312 178.617 428.271C179.157 430.292 181.001 431.899 183.078 432.158C184.434 432.328 186.039 431.774 186.459 430.474C187.204 428.17 183.806 425.783 184.963 423.656C185.546 422.583 186.958 422.352 188.174 422.243C192.822 421.824 197.47 421.406 202.118 420.988C202.896 420.918 203.912 420.999 204.132 421.749C204.14 422.653 202.994 423.029 202.096 423.14C197.259 423.742 192.421 424.343 187.584 424.945C189.833 426.853 190.056 430.64 188.154 432.894C186.251 435.148 182.615 435.61 180.126 434.029C179.296 433.501 178.588 432.786 177.715 432.332C176.842 431.878 175.689 431.743 174.933 432.373C173.225 433.796 170.648 433.412 168.603 432.538C166.577 431.672 164.577 430.194 164.105 428.041C163.638 425.908 164.803 423.758 166.181 422.063C167.558 420.369 169.223 418.834 170.05 416.813C171.265 413.848 174.85 412.372 178.026 412.792C181.202 413.211 183.983 415.144 186.297 417.361C187.786 418.788 190.202 418.228 192.171 417.613C194.14 416.997 196.613 416.542 197.992 418.077C195.153 418.721 192.314 419.366 189.474 420.011C188.211 420.298 186.684 420.511 185.798 419.565Z" fill="#E7EAEE"/>
<path fill-rule="evenodd" clip-rule="evenodd" d="M242.643 416.816C242.507 414.684 242.523 412.531 242.9 410.429C243.186 408.835 243.675 407.285 244.164 405.741C245.217 402.411 246.273 399.071 247.716 395.891C254.791 380.301 271.702 369.742 288.816 370.187C305.93 370.631 322.254 382.029 328.606 397.927C334.958 413.825 331 433.308 318.979 445.497C306.957 457.686 287.56 461.918 271.539 455.883C255.518 449.849 243.74 433.901 242.643 416.816M251.622 400.868C250.861 402.891 250.268 405.011 250.27 407.172C250.277 413.798 250.799 420.52 253.048 426.753C257.775 439.852 270.518 449.658 284.387 450.925C298.255 452.192 312.54 444.882 319.67 432.92C326.8 420.957 326.446 404.947 318.838 393.282C311.23 381.618 296.755 374.843 282.919 376.422C269.082 378.001 256.524 387.833 251.622 400.868H251.622Z" fill="#00160A"/>
<path fill-rule="evenodd" clip-rule="evenodd" d="M522.443 376.385C536.951 382.483 547.049 397.835 546.904 413.572C546.759 429.308 536.379 444.472 521.761 450.301C507.143 456.131 489.178 452.272 478.243 440.953C467.309 429.635 464.071 411.547 470.401 397.139C471.898 393.732 473.924 390.478 476.801 388.119C483.324 382.771 490.077 377.308 498.145 374.849C506.066 372.436 514.81 373.176 522.443 376.385M488.696 384.001C486.791 385.219 484.991 386.641 483.582 388.41C482.093 390.281 481.085 392.481 480.092 394.656C478.604 397.917 477.108 401.197 476.18 404.659C472.989 416.557 477.305 430.114 486.743 438.029C496.181 445.944 510.239 447.842 521.467 442.774C532.694 437.707 540.56 425.952 541.03 413.643C541.5 401.334 534.588 389.043 523.858 382.992C513.129 376.94 499.075 377.367 488.696 384.001Z" fill="#00160A"/>
<path fill-rule="evenodd" clip-rule="evenodd" d="M509.618 214.868C484.456 215.404 459.293 215.94 434.131 216.475C433.503 216.489 432.807 216.53 432.367 216.978C432.083 217.267 431.962 217.675 431.854 218.067C426.275 238.417 430.795 259.977 434.586 280.735C436.949 293.676 439.021 306.671 440.8 319.705C442.081 329.092 443.211 338.531 443.132 348.004C443.107 351.016 445.224 353.739 447.861 355.194C450.499 356.649 453.584 357.042 456.593 357.188C462.931 357.496 469.316 356.822 475.45 355.197C476.593 354.895 477.777 354.557 478.938 354.774C480.1 354.991 481.218 355.968 481.147 357.147C481.065 358.511 479.589 359.295 478.302 359.753C470.203 362.634 461.312 363.253 452.892 361.523C448.852 360.692 444.64 359.125 442.324 355.712C441.007 353.77 440.444 351.428 439.931 349.139C434.773 326.102 432.198 302.577 429.683 279.104C427.398 257.773 425.152 236.275 427.069 214.907C427.128 214.247 427.2 213.56 427.551 212.997C428.302 211.79 429.962 211.626 431.383 211.591C457.999 210.937 484.615 210.284 511.231 209.63C512.741 209.593 514.363 209.587 515.608 210.441C516.527 211.071 517.1 212.079 517.642 213.053C527.291 230.375 536.94 247.697 546.59 265.02C548.52 268.485 550.513 272.467 549.312 276.248C548.421 279.052 545.882 281.086 543.124 282.11C540.366 283.135 537.376 283.303 534.438 283.459C529.164 283.741 523.89 284.022 518.617 284.304C505.589 284.999 492.561 285.695 479.533 286.39C478.785 286.43 477.95 286.44 477.397 285.935C476.591 285.198 476.939 283.758 477.8 283.085C478.661 282.413 479.817 282.295 480.906 282.204C500.566 280.546 520.226 278.888 539.886 277.23C541.427 277.1 542.496 275.482 542.566 273.937C542.635 272.392 541.966 270.921 541.308 269.522C532.79 251.422 523.567 233.653 513.667 216.27C512.923 214.963 511.122 214.836 509.618 214.868V214.868Z" fill="#00160A"/>
<path fill-rule="evenodd" clip-rule="evenodd" d="M272.323 388.682C281.117 383.815 292.556 384.384 301.022 389.8C309.488 395.216 314.763 405.152 314.874 415.202C314.987 425.438 309.438 435.925 300.168 440.267C296.936 441.781 293.375 442.535 289.809 442.674C276.814 443.181 263.811 434.636 259.647 422.316C255.483 409.995 260.945 394.98 272.323 388.682M292.395 438.271C295.811 437.702 299.13 436.483 302.036 434.598C305.014 432.666 307.539 430.041 309.353 426.99C314.074 419.048 313.47 408.381 308.23 400.772C302.99 393.162 293.511 388.821 284.289 389.384C280.851 389.594 277.438 390.439 274.365 391.994C263.76 397.36 258.89 411.521 263.377 422.527C267.865 433.532 280.671 440.225 292.395 438.271L292.395 438.271Z" fill="#00160A"/>
<path fill-rule="evenodd" clip-rule="evenodd" d="M364.303 370.977C362.772 369.617 360.328 369.687 358.836 368.284C359.256 366.764 360.66 365.765 361.646 364.533C363.975 361.621 363.73 356.971 361.108 354.32C359.782 352.978 357.857 351.951 357.506 350.098C360.248 349.627 363.02 348.743 365.084 346.878C367.149 345.013 368.346 341.99 367.439 339.36C367.161 338.553 366.694 337.781 366.684 336.927C366.673 336.073 367.415 335.127 368.237 335.361C372.636 336.616 377.778 333.691 378.947 329.268C379.449 327.368 382.244 327.556 384 328.44C385.755 329.324 387.99 330.442 389.482 329.162C390.744 328.079 390.976 325.563 392.639 325.594C393.5 325.611 394.11 326.395 394.71 327.013C396.781 329.141 400.227 329.786 402.928 328.551C403.873 328.119 404.747 327.476 405.773 327.311C406.799 327.146 408.063 327.723 408.128 328.76C408.328 331.896 411.754 334.401 414.803 333.639C415.966 333.348 417.941 333.411 417.547 334.544C416.344 338.002 418.917 342.237 422.54 342.765C423.462 342.899 424.442 342.834 425.277 343.249C426.111 343.664 426.664 344.848 426.037 345.537C423.341 348.497 424.479 353.985 428.129 355.628C429.113 356.071 428.881 357.606 428.136 358.387C427.392 359.168 426.318 359.642 425.773 360.573C424.826 362.192 425.954 364.256 427.33 365.531C428.707 366.805 430.437 367.876 431.082 369.637C428.49 368.647 425.28 369.666 423.733 371.969C422.186 374.272 422.457 377.629 424.353 379.654C423.352 381.454 420.677 380.737 418.625 380.918C416.129 381.138 413.944 383.299 413.697 385.793C413.589 386.877 413.803 388.015 413.417 389.035C413.031 390.054 411.621 390.791 410.85 390.021C407.983 387.154 402.498 387.731 400.289 391.13C399.764 391.938 399.248 392.971 398.289 393.058C396.779 393.194 396.297 391.012 395.068 390.125C393.545 389.025 391.382 390.273 390.311 391.817C389.24 393.361 388.571 395.289 386.994 396.312C384 394.113 384.908 387.889 381.228 387.38C379.639 387.161 378.24 388.34 376.735 388.896C375.231 389.452 372.912 388.709 373.193 387.13C373.653 384.546 373.264 381.102 370.726 380.432C368.222 379.771 365.018 382.375 363.29 380.446C365.162 377.521 366.899 373.284 364.303 370.977ZM365.971 354.89C364.822 356.971 365.031 359.497 364.817 361.865C364.602 364.234 363.607 366.907 361.334 367.606C363.904 367.788 366.308 369.49 367.333 371.854C368.359 374.217 367.96 377.136 366.338 379.137C368.443 377.559 371.655 378.019 373.566 379.827C375.477 381.635 376.163 384.488 375.773 387.09C377.94 385.541 380.993 385.345 383.34 386.603C385.687 387.862 387.213 390.514 387.122 393.175C387.769 390.814 389.624 388.75 391.992 388.129C394.36 387.508 397.137 388.518 398.329 390.657C398.438 389.045 399.959 387.904 401.454 387.293C404.658 385.984 408.413 386.098 411.531 387.599C411.15 382.572 416.407 377.958 421.342 378.988C419.798 377.378 419.885 374.755 420.743 372.695C421.824 370.099 424.356 367.836 427.154 368.134C425.53 367.54 424.218 366.149 423.72 364.493C422.884 361.715 424.407 358.615 426.774 356.937C423.786 356.31 422.823 352.593 422.453 349.562C422.26 347.982 422.354 345.913 423.862 345.405C420.75 344.525 417.939 342.61 415.982 340.035C415.077 338.844 414.429 336.963 415.579 336.006C413.192 335.882 410.839 335.167 408.788 333.941C407.226 333.009 405.69 331.3 406.282 329.58C402.105 331.644 396.843 331.317 392.954 328.75C391.779 330.599 389.475 331.496 387.284 331.488C385.093 331.479 382.982 330.699 380.977 329.818C381.214 331.267 380.236 332.63 379.176 333.647C376.481 336.231 372.857 337.826 369.13 338.069C370.788 343.769 366.37 350.422 360.473 351.106C361.897 352.85 363.852 354.127 365.971 354.89Z" fill="#00160A"/>
<path fill-rule="evenodd" clip-rule="evenodd" d="M510.884 436.577C507.149 437.086 503.299 436.724 499.725 435.525C488.394 431.726 480.987 418.767 483.464 407.075C485.941 395.383 497.966 386.541 509.865 387.662C521.763 388.784 531.925 399.717 532.174 411.665C532.422 423.614 522.725 434.961 510.884 436.577M519.436 431.528C527.396 426.697 531.766 416.594 529.836 407.483C527.905 398.373 519.813 390.911 510.576 389.724C501.34 388.537 491.624 393.71 487.452 402.036C483.28 410.361 484.953 421.241 491.433 427.929C498.504 435.227 510.749 436.801 519.436 431.528Z" fill="#00160A"/>
<path fill-rule="evenodd" clip-rule="evenodd" d="M394.559 331.874C404.717 331.758 414.702 337.806 419.304 346.862C423.906 355.918 422.905 367.548 416.823 375.685C410.741 383.821 399.87 388.074 389.881 386.223C381.058 384.589 373.227 378.329 369.688 370.083C366.15 361.836 367.01 351.848 371.905 344.327C376.801 336.806 385.587 331.977 394.559 331.874ZM420.477 357.617C420.222 353.572 418.986 349.591 416.906 346.112C410.561 335.504 395.855 330.861 384.569 335.901C373.283 340.942 366.926 354.991 370.591 366.796C374.255 378.601 387.451 386.581 399.607 384.345C411.764 382.108 421.254 369.954 420.477 357.617V357.617Z" fill="#00160A"/>
<path fill-rule="evenodd" clip-rule="evenodd" d="M408.769 359.349C406.85 361.589 403.782 362.789 400.853 362.443C399.841 362.323 398.277 362.576 398.549 363.559C402.012 364.776 405.474 365.993 408.937 367.21C410.854 367.884 411.403 370.64 410.262 372.322C409.121 374.004 406.865 374.633 404.847 374.384C402.83 374.136 400.983 373.166 399.188 372.212C397.379 371.251 395.569 370.29 393.759 369.329C396.201 368.363 398.85 369.845 401.164 371.085C403.478 372.326 406.551 373.295 408.536 371.576C408.836 371.316 409.102 370.982 409.156 370.588C409.284 369.646 408.237 369.019 407.356 368.661C404.575 367.529 401.794 366.397 399.012 365.265C397.608 364.694 395.954 365.19 394.75 366.112C393.546 367.034 392.691 368.325 391.818 369.565C389.97 372.189 387.745 374.825 384.663 375.718C381.581 376.611 377.579 374.868 377.262 371.675C377.063 369.668 378.323 367.79 379.815 366.433C381.308 365.076 383.083 364.035 384.45 362.552C384.622 362.365 384.796 362.153 384.817 361.899C384.861 361.37 384.266 361.044 383.768 360.86C381.083 359.869 378.398 358.879 375.713 357.888C374.551 357.459 375.274 355.453 376.503 355.304C377.731 355.156 378.809 356.045 379.791 356.798C382.382 358.786 385.975 360.18 388.869 358.664C390.931 357.583 392.119 355.051 391.63 352.774C390.965 349.671 392.129 346.244 394.548 344.189C396.967 342.134 400.537 341.539 403.492 342.697C401.236 343.758 400.207 346.838 401.372 349.042C402.537 351.246 405.661 352.131 407.809 350.865C408.596 350.401 409.643 349.716 410.277 350.374C410.454 350.556 410.538 350.807 410.606 351.052C411.399 353.892 410.687 357.108 408.769 359.349ZM394.282 350.71C394.274 354.105 396.178 357.6 399.327 358.867C402.476 360.135 406.653 358.566 407.68 355.33C407.908 354.61 407.517 353.452 406.829 353.763C404.952 354.613 402.739 353.631 401.154 352.314C400.121 351.457 399.185 350.407 398.791 349.124C398.397 347.841 398.655 346.293 399.683 345.43C398.069 345.069 396.272 345.744 395.296 347.078C394.541 348.11 394.285 349.432 394.282 350.71ZM380.6 372.102C384.698 376.154 387.138 370.846 388.13 369.707C390.429 367.065 392.867 364.544 395.43 362.157C395.934 361.688 395.952 360.863 395.66 360.24C395.368 359.617 394.832 359.148 394.311 358.698C393.535 358.028 392.286 358.22 391.478 358.849C390.669 359.479 376.503 368.051 380.6 372.102Z" fill="#FFB61D"/>
<path fill-rule="evenodd" clip-rule="evenodd" d="M285.928 400.32C289.664 400.021 293.503 401.384 296.213 403.972C300.413 407.983 301.498 414.881 298.731 419.987C295.964 425.093 289.593 427.951 283.94 426.622C278.555 425.357 274.243 420.425 273.707 414.92C273.171 409.416 276.452 403.745 281.491 401.464C282.889 400.832 284.398 400.443 285.928 400.32M292.412 404.525C291.09 403.626 289.636 402.873 288.064 402.583C286.276 402.253 284.403 402.542 282.725 403.245C278.462 405.031 275.556 409.658 275.833 414.272C276.111 418.886 279.575 423.144 284.045 424.321C288.515 425.498 293.646 423.479 296.086 419.553C298.525 415.627 298.05 410.108 294.949 406.68C294.203 405.855 293.331 405.151 292.412 404.525V404.525Z" fill="#00160A"/>
<path fill-rule="evenodd" clip-rule="evenodd" d="M288.082 278.569C288.141 283.161 286.968 288.071 289.092 292.142C293.027 299.684 304.077 298.282 312.206 295.775C305.525 288.171 298.845 280.568 292.164 272.964C306.004 258.833 319.844 244.702 333.683 230.571C334.837 229.393 336.17 228.134 337.818 228.102C339.72 228.065 341.207 229.655 342.425 231.116C346.958 236.554 351.491 241.991 356.025 247.429C359.76 251.909 363.316 259.165 358.744 262.787C375.896 261.624 393.047 260.46 410.198 259.296C406.987 240.952 412.888 222.372 418.714 204.684C419.295 202.921 419.997 201.003 421.608 200.081C422.737 199.435 424.103 199.409 425.403 199.4C456.717 199.184 488.031 198.968 519.345 198.752C521.241 198.739 523.242 198.752 524.881 199.707C526.288 200.526 527.235 201.931 528.123 203.296C554.615 244.023 571.155 291.174 575.91 339.526C576.507 345.591 577.159 352.218 581.44 356.555C587.957 363.158 588.659 374.665 582.992 382.01C587.159 385.035 586.131 392.017 582.314 395.474C578.497 398.93 573.074 399.814 567.978 400.549C561.214 401.525 553.857 402.395 547.944 398.97C557.628 396.701 567.324 394.485 577.032 392.323C572.726 363.964 568.42 335.605 564.114 307.246C562.694 297.894 561.267 288.509 558.619 279.428C555.769 269.65 551.537 260.339 547.32 251.067C540.679 236.464 534.038 221.861 527.396 207.258C526.673 205.666 525.888 204 524.461 202.99C522.733 201.768 520.453 201.771 518.336 201.821C488.857 202.523 459.378 203.224 429.898 203.926C428.199 203.967 426.367 204.052 425.032 205.105C423.933 205.97 423.376 207.337 422.895 208.65C411.287 240.369 418.087 275.506 425.01 308.565C426.281 314.638 418.031 317.741 411.85 318.283C341.28 324.469 270.71 330.656 200.141 336.843C199.275 342.438 199.031 348.129 199.414 353.778C204.111 354.191 208.807 354.603 213.504 355.016C212.014 355.603 210.525 356.189 209.035 356.775C211.812 371.37 213.347 386.201 213.618 401.055C213.701 405.576 217.619 409.296 221.935 410.643C226.251 411.991 230.899 411.489 235.391 410.975C230.609 412.977 225.626 415.016 220.449 414.763C215.271 414.509 209.85 411.244 208.894 406.149C205.898 390.172 204.172 373.957 203.739 357.708C201.018 357.774 198.297 357.84 195.576 357.907C194.656 351.107 194.286 344.233 194.47 337.374C194.509 335.898 194.629 334.285 195.636 333.206C196.646 332.124 198.249 331.895 199.719 331.73C207.371 330.871 215.024 330.012 222.676 329.153C220.415 313.454 218.154 297.756 215.894 282.057C215.698 280.701 215.53 279.212 216.267 278.057C217.086 276.774 218.731 276.349 220.221 276.037C240.162 271.871 260.453 269.386 280.809 268.616C285.398 268.442 288.022 273.977 288.082 278.569ZM225.563 327.568C225.614 328.013 225.69 328.506 226.041 328.785C226.382 329.056 226.865 329.028 227.298 328.987C247.32 327.085 267.342 325.184 287.364 323.283C287.916 323.231 288.545 323.134 288.847 322.668C289.084 322.302 289.035 321.829 288.978 321.397C286.931 306.035 284.885 290.672 282.839 275.31C282.783 274.888 282.714 274.438 282.429 274.122C282.045 273.698 281.406 273.654 280.834 273.642C261.051 273.209 241.215 275.224 221.923 279.628C221.398 279.747 220.823 279.902 220.523 280.35C220.242 280.769 220.288 281.318 220.345 281.82C222.084 297.069 223.824 312.319 225.563 327.568ZM411.842 266.153C411.756 265.441 411.607 264.627 410.988 264.264C410.594 264.033 410.107 264.052 409.65 264.078C391.825 265.084 373.999 266.09 356.174 267.097C355.781 267.119 355.357 267.153 355.06 267.411C354.627 267.788 354.651 268.456 354.712 269.026C356.344 284.417 357.975 299.807 359.607 315.197C359.658 315.682 359.728 316.207 360.073 316.551C360.517 316.993 361.23 316.966 361.854 316.909C380.349 315.214 398.844 313.518 417.34 311.822C415.507 296.599 413.674 281.376 411.842 266.153ZM316.09 292.083C316.35 292.32 316.634 292.567 316.983 292.608C317.475 292.666 317.906 292.299 318.266 291.957C330.315 280.505 344.365 271.053 356.415 259.601C356.958 259.085 357.542 258.473 357.517 257.725C357.5 257.224 357.206 256.779 356.922 256.366C352.12 249.377 345.014 240.597 339.626 234.049C339.096 233.406 338.413 232.701 337.587 232.806C337.06 232.873 336.639 233.261 336.256 233.629C322.946 246.452 309.636 259.275 296.326 272.098C296.029 272.383 295.711 272.718 295.717 273.13C295.723 273.542 296.051 273.869 296.356 274.146C302.934 280.125 309.512 286.104 316.09 292.083ZM354.606 298.379C354.503 297.719 354.357 296.987 353.811 296.601C353.327 296.259 352.68 296.301 352.089 296.357C333.664 298.111 315.239 299.865 296.814 301.62C295.85 301.711 294.722 301.913 294.302 302.785C294.072 303.265 294.129 303.827 294.192 304.356C294.813 309.617 295.435 314.879 296.057 320.14C296.145 320.882 296.286 321.716 296.903 322.137C297.397 322.473 298.046 322.435 298.642 322.383C317.697 320.73 336.753 319.078 355.809 317.425C356.284 317.384 356.813 317.315 357.112 316.943C357.419 316.561 357.359 316.011 357.283 315.526C356.391 309.81 355.499 304.095 354.606 298.379ZM350.777 270.902C350.733 270.582 350.585 270.172 350.263 270.197C350.127 270.208 350.014 270.302 349.912 270.391C340.434 278.672 330.955 286.953 321.477 295.234C331.332 294.408 341.178 293.468 351.012 292.416C351.857 292.325 352.833 292.15 353.237 291.403C353.501 290.915 353.433 290.322 353.358 289.772C352.497 283.482 351.637 277.192 350.777 270.902ZM579.511 359.568C580.419 364.807 581.327 370.046 582.235 375.285C582.325 375.805 582.511 376.431 583.026 376.544C583.864 376.728 584.153 375.469 584.038 374.619C583.424 370.086 582.81 365.553 582.195 361.019C582.086 360.208 581.926 359.308 581.27 358.817C580.613 358.327 579.371 358.761 579.511 359.568Z" fill="#00160A"/>
<path fill-rule="evenodd" clip-rule="evenodd" d="M128.785 463.429C111.275 463.706 51.0601 468.167 50.0199 465.933C48.6892 463.075 114.353 459.317 128.666 459.09L133.15 459.029C146.164 458.889 128.785 463.429 128.785 463.429ZM262.524 457.958C266.777 457.958 270.105 459.334 267.243 460.34C264.38 461.345 255.117 463.461 239.605 463.818C224.094 464.175 206.115 464.544 179.547 465.067C178.007 465.097 176.733 463.873 176.703 462.332C176.673 460.792 177.897 459.518 179.437 459.488L226.482 458.529C240.764 458.22 249.704 457.958 262.524 457.958ZM475.027 456.325C476.568 456.3 477.837 457.529 477.861 459.07C477.885 460.611 476.656 461.879 475.115 461.904L468.578 461.984L448.575 462.122C444.55 462.163 281.689 463.204 279.481 460.816C277.273 458.428 280.662 457.996 282.202 457.958C282.202 457.958 448.522 456.537 452.871 456.505L469.505 456.395C471.438 456.376 473.189 456.354 475.027 456.325ZM655.839 450.957C655.839 450.957 660.848 450.093 697.418 452.831C698.955 452.946 700.107 454.285 699.992 455.821C699.877 457.358 681.793 456.582 657.07 456.538L650.271 456.549C632.118 456.63 615.254 457.121 587.265 458.273L551.939 459.765C536.864 460.383 527.87 460.684 516.933 460.942C515.393 460.978 514.115 459.759 514.078 458.218C514.042 456.678 515.261 455.4 516.802 455.363L525.584 455.134C536.032 454.832 546.767 454.411 565.801 453.599L585.984 452.742C617.543 451.437 635.092 450.957 655.839 450.957Z" fill="#00160A"/>
</svg>
